<?xml version="1.0" ?><!DOCTYPE svg  PUBLIC '-//W3C//DTD SVG 1.1//EN'  'http://www.w3.org/Graphics/SVG/1.1/DTD/svg11.dtd'><svg enable-background="new 0 0 128 128" id="Слой_1" version="1.1" viewBox="0 0 128 128" xml:space="preserve" xmlns="http://www.w3.org/2000/svg" xmlns:xlink="http://www.w3.org/1999/xlink"><g><g><path d="M115.7,108.7H12.3c-2.8,0-5-2.2-5-5V37c0-2.8,2.2-5,5-5h103.3c2.8,0,5,2.2,5,5v66.7    C120.7,106.4,118.4,108.7,115.7,108.7z" fill="#D6AB7F"/></g><g><path d="M115.7,109.7H12.3c-3.3,0-6-2.7-6-6V37c0-3.3,2.7-6,6-6h103.3c3.3,0,6,2.7,6,6v66.7    C121.7,107,119,109.7,115.7,109.7z M12.3,33c-2.2,0-4,1.8-4,4v66.7c0,2.2,1.8,4,4,4h103.3c2.2,0,4-1.8,4-4V37c0-2.2-1.8-4-4-4    H12.3z" fill="#62355C"/></g><g><path d="M115.7,32H12.3c-2.8,0-5,2.2-5,5v8.2c0.5,0.1,1.1,0.1,1.7,0.1h110c0.6,0,1.1-0.1,1.7-0.1V37    C120.7,34.2,118.4,32,115.7,32z" fill="#62355C" opacity="0.2"/><path d="M119,39.3H9c-2.8,0-5-2.2-5-5v-10c0-2.8,2.2-5,5-5h110c2.8,0,5,2.2,5,5v10C124,37.1,121.8,39.3,119,39.3z" fill="#D6AB7F"/></g><g><path d="M79,69H49c-2.8,0-5-2.2-5-5v-3.3c0-2.8,2.2-5,5-5h30c2.8,0,5,2.2,5,5V64C84,66.8,81.8,69,79,69z" fill="#FFFFFF"/></g><g><path d="M79,70H49c-3.3,0-6-2.7-6-6v-3.3c0-3.3,2.7-6,6-6h30c3.3,0,6,2.7,6,6V64C85,67.3,82.3,70,79,70z M49,56.7    c-2.2,0-4,1.8-4,4V64c0,2.2,1.8,4,4,4h30c2.2,0,4-1.8,4-4v-3.3c0-2.2-1.8-4-4-4H49z" fill="#62355C"/></g><g><path d="M119,40.3H9c-3.3,0-6-2.7-6-6v-10c0-3.3,2.7-6,6-6h110c3.3,0,6,2.7,6,6v10C125,37.6,122.3,40.3,119,40.3z     M9,20.3c-2.2,0-4,1.8-4,4v10c0,2.2,1.8,4,4,4h110c2.2,0,4-1.8,4-4v-10c0-2.2-1.8-4-4-4H9z" fill="#62355C"/></g></g></svg>